<svg xmlns="http://www.w3.org/2000/svg" xmlns:xlink="http://www.w3.org/1999/xlink" width="500" zoomAndPan="magnify" viewBox="0 0 375 374.999991" height="500" preserveAspectRatio="xMidYMid meet" version="1.0"><defs><g/></defs><g fill="#c99a5b" fill-opacity="1"><g transform="translate(154.763995, 263.725639)"><g><path d="M 53.953125 -105 C 59.765625 -105 64.707031 -104.171875 68.78125 -102.515625 C 72.851562 -100.867188 76.828125 -98.546875 80.703125 -95.546875 C 81.773438 -94.671875 82.695312 -94.234375 83.46875 -94.234375 C 85.40625 -94.234375 86.664062 -97.140625 87.25 -102.953125 L 90.59375 -102.953125 C 90.207031 -96.648438 90.015625 -85.503906 90.015625 -69.515625 L 86.671875 -69.515625 C 85.609375 -75.816406 84.640625 -80.347656 83.765625 -83.109375 C 82.890625 -85.867188 81.4375 -88.507812 79.40625 -91.03125 C 76.488281 -94.8125 72.773438 -97.644531 68.265625 -99.53125 C 63.765625 -101.425781 58.894531 -102.375 53.65625 -102.375 C 47.351562 -102.375 41.851562 -100.289062 37.15625 -96.125 C 32.457031 -91.957031 28.796875 -86.019531 26.171875 -78.3125 C 23.554688 -70.601562 22.25 -61.5625 22.25 -51.1875 C 22.25 -40.625 23.65625 -31.5625 26.46875 -24 C 29.28125 -16.4375 33.179688 -10.691406 38.171875 -6.765625 C 43.160156 -2.835938 48.804688 -0.875 55.109375 -0.875 C 59.960938 -0.875 64.664062 -1.796875 69.21875 -3.640625 C 73.78125 -5.484375 77.367188 -8.242188 79.984375 -11.921875 C 81.921875 -14.640625 83.328125 -17.546875 84.203125 -20.640625 C 85.078125 -23.742188 85.898438 -28.5 86.671875 -34.90625 L 90.015625 -34.90625 C 90.015625 -18.226562 90.207031 -6.59375 90.59375 0 L 87.25 0 C 86.957031 -3.101562 86.546875 -5.304688 86.015625 -6.609375 C 85.484375 -7.921875 84.734375 -8.578125 83.765625 -8.578125 C 82.984375 -8.578125 81.960938 -8.191406 80.703125 -7.421875 C 76.347656 -4.316406 72.179688 -1.960938 68.203125 -0.359375 C 64.222656 1.234375 59.425781 2.03125 53.8125 2.03125 C 44.59375 2.03125 36.519531 -0.0507812 29.59375 -4.21875 C 22.664062 -8.382812 17.285156 -14.414062 13.453125 -22.3125 C 9.617188 -30.21875 7.703125 -39.648438 7.703125 -50.609375 C 7.703125 -61.273438 9.664062 -70.726562 13.59375 -78.96875 C 17.519531 -87.207031 23 -93.601562 30.03125 -98.15625 C 37.0625 -102.71875 45.035156 -105 53.953125 -105 Z M 53.953125 -105 "/></g></g></g><g fill="#3d4a55" fill-opacity="1"><g transform="translate(160.558705, 232.213682)"><g><path d="M 5.554688 31.078125 C 9.117188 36.113281 15.539062 38.285156 21.441406 36.375 C 38.890625 30.90625 57.382812 -2.257812 77.695312 -0.867188 C 78.304688 -0.953125 78.304688 -1.300781 77.871094 -1.648438 C 77.4375 -1.996094 76.914062 -2.082031 76.394531 -2.171875 C 56.949219 -3.386719 34.378906 30.992188 17.277344 34.636719 C 13.628906 35.332031 11.113281 34.289062 9.117188 31.253906 C 7.8125 29.34375 6.769531 27.257812 6.164062 25.003906 C 4.949219 20.75 4.6875 16.320312 4.601562 10.503906 C 4.6875 3.386719 6.164062 -4.949219 8.679688 -13.109375 C 13.28125 -27.867188 20.3125 -41.496094 28.386719 -54.605469 C 35.160156 -65.628906 42.796875 -75.960938 52.609375 -84.46875 C 57.382812 -88.636719 62.503906 -92.367188 68.410156 -94.625 C 76.222656 -97.664062 81.34375 -95.148438 83.859375 -87.246094 C 85.683594 -81.257812 85.335938 -75.351562 83.339844 -69.625 C 77.871094 -54.085938 67.886719 -42.191406 53.214844 -34.464844 C 50.4375 -32.902344 47.398438 -32.121094 44.1875 -31.773438 C 42.453125 -31.601562 41.234375 -32.382812 40.28125 -33.683594 C 40.019531 -34.03125 39.761719 -34.464844 39.585938 -34.8125 C 38.980469 -35.59375 38.109375 -36.375 37.242188 -35.855469 C 36.289062 -35.160156 37.070312 -34.117188 37.589844 -33.421875 C 39.5 -30.90625 42.015625 -29.515625 45.140625 -29.429688 C 49.222656 -29.34375 52.957031 -30.472656 56.429688 -32.382812 C 69.535156 -39.5 79.171875 -50.003906 85.597656 -63.460938 C 88.636719 -69.796875 90.113281 -76.570312 88.722656 -83.773438 C 87.246094 -91.238281 83.253906 -96.363281 75.441406 -98.011719 C 70.40625 -99.054688 65.890625 -97.664062 61.464844 -95.320312 C 53.128906 -90.894531 46.097656 -84.640625 40.105469 -77.4375 C 26.128906 -60.683594 15.277344 -42.015625 7.292969 -21.703125 C 2.34375 -9.203125 -0.347656 3.734375 0.953125 17.363281 C 1.390625 22.3125 2.691406 27 5.554688 31.078125 Z M 5.554688 31.078125 "/></g></g></g><g fill="#c99a5b" fill-opacity="1"><g transform="translate(157.214898, 230.257373)"><g><path d="M -9.640625 7.515625 L -8.34375 7.484375 C -8.21875 7.972656 -8.003906 8.378906 -7.703125 8.703125 C -7.410156 9.035156 -7.054688 9.28125 -6.640625 9.4375 C -6.222656 9.601562 -5.78125 9.679688 -5.3125 9.671875 C -4.664062 9.648438 -4.085938 9.472656 -3.578125 9.140625 C -3.066406 8.804688 -2.664062 8.316406 -2.375 7.671875 C -2.082031 7.035156 -1.953125 6.257812 -1.984375 5.34375 C -2.003906 4.425781 -2.175781 3.65625 -2.5 3.03125 C -2.820312 2.414062 -3.242188 1.953125 -3.765625 1.640625 C -4.285156 1.328125 -4.867188 1.179688 -5.515625 1.203125 C -5.984375 1.210938 -6.421875 1.304688 -6.828125 1.484375 C -7.242188 1.671875 -7.59375 1.929688 -7.875 2.265625 C -8.15625 2.609375 -8.34375 3.023438 -8.4375 3.515625 L -9.734375 3.546875 C -9.609375 2.816406 -9.347656 2.1875 -8.953125 1.65625 C -8.566406 1.132812 -8.078125 0.726562 -7.484375 0.4375 C -6.898438 0.15625 -6.253906 0.0078125 -5.546875 0 C -4.640625 -0.0195312 -3.828125 0.175781 -3.109375 0.59375 C -2.398438 1.007812 -1.832031 1.617188 -1.40625 2.421875 C -0.988281 3.234375 -0.769531 4.195312 -0.75 5.3125 C -0.71875 6.425781 -0.890625 7.394531 -1.265625 8.21875 C -1.648438 9.039062 -2.1875 9.679688 -2.875 10.140625 C -3.570312 10.609375 -4.375 10.851562 -5.28125 10.875 C -5.988281 10.882812 -6.640625 10.757812 -7.234375 10.5 C -7.835938 10.238281 -8.347656 9.851562 -8.765625 9.34375 C -9.191406 8.84375 -9.484375 8.234375 -9.640625 7.515625 Z M -9.640625 7.515625 "/></g></g></g><g fill="#c99a5b" fill-opacity="1"><g transform="translate(144.049719, 230.219573)"><g><path d="M -1.265625 -0.21875 L -3.03125 10.234375 L -4.296875 10.03125 L -2.71875 0.703125 L -7.5625 -0.125 L -7.375 -1.25 Z M -1.265625 -0.21875 "/></g></g></g><g fill="#c99a5b" fill-opacity="1"><g transform="translate(133.43523, 228.258437)"><g><path d="M -1.609375 -0.59375 L -0.359375 -0.125 L -7.65625 8.46875 L -8.890625 8.015625 L -8.890625 -3.265625 L -7.625 -2.8125 L -7.65625 0.375 L -3.640625 1.84375 Z M -4.421875 2.78125 L -7.6875 1.59375 L -7.734375 6.65625 L -7.65625 6.6875 Z M -4.421875 2.78125 "/></g></g></g><g fill="#c99a5b" fill-opacity="1"><g transform="translate(121.882869, 223.779622)"><g><path d="M -12.59375 4.625 L -13.671875 3.9375 L -9.953125 -2.015625 C -9.535156 -2.679688 -9.019531 -3.15625 -8.40625 -3.4375 C -7.789062 -3.71875 -7.140625 -3.816406 -6.453125 -3.734375 C -5.773438 -3.648438 -5.117188 -3.410156 -4.484375 -3.015625 C -3.847656 -2.617188 -3.34375 -2.128906 -2.96875 -1.546875 C -2.601562 -0.972656 -2.410156 -0.347656 -2.390625 0.328125 C -2.367188 1.015625 -2.566406 1.691406 -2.984375 2.359375 L -6.703125 8.3125 L -7.78125 7.625 L -4.0625 1.671875 C -3.769531 1.203125 -3.632812 0.738281 -3.65625 0.28125 C -3.675781 -0.175781 -3.816406 -0.601562 -4.078125 -1 C -4.335938 -1.394531 -4.679688 -1.726562 -5.109375 -2 C -5.535156 -2.269531 -5.984375 -2.4375 -6.453125 -2.5 C -6.929688 -2.5625 -7.378906 -2.5 -7.796875 -2.3125 C -8.222656 -2.125 -8.582031 -1.796875 -8.875 -1.328125 Z M -12.59375 4.625 "/></g></g></g><g fill="#c99a5b" fill-opacity="1"><g transform="translate(110.746547, 216.482767)"><g><path d="M -3.265625 -3.15625 L -0.921875 -0.890625 L -8.296875 6.71875 L -10.75 4.34375 C -11.488281 3.632812 -11.96875 2.875 -12.1875 2.0625 C -12.414062 1.25 -12.394531 0.425781 -12.125 -0.40625 C -11.851562 -1.25 -11.335938 -2.066406 -10.578125 -2.859375 C -9.816406 -3.648438 -9.019531 -4.191406 -8.1875 -4.484375 C -7.351562 -4.785156 -6.519531 -4.828125 -5.6875 -4.609375 C -4.851562 -4.398438 -4.046875 -3.914062 -3.265625 -3.15625 Z M -2.640625 -0.96875 L -4.015625 -2.296875 C -4.953125 -3.210938 -5.90625 -3.625 -6.875 -3.53125 C -7.851562 -3.4375 -8.789062 -2.925781 -9.6875 -2 C -10.582031 -1.070312 -11.0625 -0.125 -11.125 0.84375 C -11.1875 1.8125 -10.773438 2.726562 -9.890625 3.59375 L -8.421875 5.015625 Z M -2.640625 -0.96875 "/></g></g></g><g fill="#c99a5b" fill-opacity="1"><g transform="translate(101.628783, 206.998558)"><g><path d="M -10 4.3125 L -1.53125 -2.046875 L -0.765625 -1.03125 L -9.234375 5.328125 Z M -10 4.3125 "/></g></g></g><g fill="#c99a5b" fill-opacity="1"><g transform="translate(97.637465, 201.793709)"><g><path d="M -13.875 -3.671875 L -4.484375 -8.578125 L -3.90625 -7.46875 L -8.59375 1.484375 L -8.546875 1.59375 L -1.1875 -2.265625 L -0.59375 -1.140625 L -9.984375 3.765625 L -10.5625 2.65625 L -5.859375 -6.3125 L -5.90625 -6.421875 L -13.296875 -2.5625 Z M -13.875 -3.671875 "/></g></g></g><g fill="#c99a5b" fill-opacity="1"><g transform="translate(91.669078, 189.697318)"><g><path d="M -0.46875 -1.65625 L -0.109375 -0.359375 L -11.34375 -1.234375 L -11.703125 -2.5 L -2.578125 -9.109375 L -2.203125 -7.8125 L -4.8125 -5.984375 L -3.640625 -1.859375 Z M -4.84375 -1.9375 L -5.796875 -5.28125 L -9.9375 -2.359375 L -9.921875 -2.265625 Z M -4.84375 -1.9375 "/></g></g></g><g fill="#c99a5b" fill-opacity="1"><g transform="translate(88.68664, 177.484384)"><g><path d="M -10.796875 -0.8125 L -7.171875 -1.28125 L -7.015625 -0.140625 L -10.640625 0.328125 Z M -10.796875 -0.8125 "/></g></g></g><g fill="#c99a5b" fill-opacity="1"><g transform="translate(87.909053, 171.539654)"><g><path d="M -7.8125 -7.21875 C -8.34375 -7.164062 -8.753906 -6.921875 -9.046875 -6.484375 C -9.347656 -6.046875 -9.503906 -5.507812 -9.515625 -4.875 C -9.523438 -4.164062 -9.363281 -3.59375 -9.03125 -3.15625 C -8.707031 -2.726562 -8.296875 -2.507812 -7.796875 -2.5 C -7.410156 -2.488281 -7.101562 -2.597656 -6.875 -2.828125 C -6.644531 -3.054688 -6.457031 -3.328125 -6.3125 -3.640625 C -6.175781 -3.960938 -6.070312 -4.253906 -6 -4.515625 L -5.703125 -5.59375 C -5.617188 -5.851562 -5.507812 -6.148438 -5.375 -6.484375 C -5.238281 -6.828125 -5.054688 -7.148438 -4.828125 -7.453125 C -4.609375 -7.765625 -4.328125 -8.019531 -3.984375 -8.21875 C -3.640625 -8.414062 -3.21875 -8.507812 -2.71875 -8.5 C -2.144531 -8.488281 -1.628906 -8.332031 -1.171875 -8.03125 C -0.710938 -7.726562 -0.351562 -7.289062 -0.09375 -6.71875 C 0.164062 -6.144531 0.285156 -5.453125 0.265625 -4.640625 C 0.242188 -3.492188 -0.0351562 -2.59375 -0.578125 -1.9375 C -1.128906 -1.28125 -1.84375 -0.925781 -2.71875 -0.875 L -2.703125 -2.203125 C -2.285156 -2.222656 -1.945312 -2.347656 -1.6875 -2.578125 C -1.425781 -2.816406 -1.226562 -3.113281 -1.09375 -3.46875 C -0.957031 -3.832031 -0.890625 -4.226562 -0.890625 -4.65625 C -0.878906 -5.144531 -0.953125 -5.582031 -1.109375 -5.96875 C -1.265625 -6.363281 -1.484375 -6.675781 -1.765625 -6.90625 C -2.046875 -7.144531 -2.378906 -7.265625 -2.765625 -7.265625 C -3.117188 -7.273438 -3.40625 -7.179688 -3.625 -6.984375 C -3.84375 -6.796875 -4.023438 -6.539062 -4.171875 -6.21875 C -4.328125 -5.90625 -4.457031 -5.5625 -4.5625 -5.1875 L -4.96875 -3.90625 C -5.21875 -3.070312 -5.566406 -2.414062 -6.015625 -1.9375 C -6.460938 -1.46875 -7.046875 -1.238281 -7.765625 -1.25 C -8.359375 -1.257812 -8.875 -1.425781 -9.3125 -1.75 C -9.75 -2.082031 -10.082031 -2.523438 -10.3125 -3.078125 C -10.550781 -3.628906 -10.664062 -4.242188 -10.65625 -4.921875 C -10.632812 -5.609375 -10.5 -6.210938 -10.25 -6.734375 C -10 -7.265625 -9.660156 -7.679688 -9.234375 -7.984375 C -8.816406 -8.296875 -8.335938 -8.453125 -7.796875 -8.453125 Z M -7.8125 -7.21875 "/></g></g></g><g fill="#c99a5b" fill-opacity="1"><g transform="translate(88.523501, 159.548532)"><g/></g></g><g fill="#c99a5b" fill-opacity="1"><g transform="translate(89.673657, 152.811959)"><g><path d="M 0.40625 -1.21875 L -9.640625 -4.5625 L -8.46875 -8.078125 C -8.238281 -8.773438 -7.925781 -9.304688 -7.53125 -9.671875 C -7.144531 -10.046875 -6.710938 -10.28125 -6.234375 -10.375 C -5.753906 -10.46875 -5.273438 -10.429688 -4.796875 -10.265625 C -4.359375 -10.117188 -4.023438 -9.921875 -3.796875 -9.671875 C -3.566406 -9.429688 -3.40625 -9.160156 -3.3125 -8.859375 C -3.226562 -8.554688 -3.195312 -8.25 -3.21875 -7.9375 L -3.109375 -7.90625 C -3.003906 -8.207031 -2.800781 -8.476562 -2.5 -8.71875 C -2.195312 -8.96875 -1.828125 -9.132812 -1.390625 -9.21875 C -0.960938 -9.3125 -0.484375 -9.269531 0.046875 -9.09375 C 0.554688 -8.925781 0.972656 -8.660156 1.296875 -8.296875 C 1.617188 -7.929688 1.816406 -7.460938 1.890625 -6.890625 C 1.960938 -6.316406 1.867188 -5.632812 1.609375 -4.84375 Z M -0.265625 -2.796875 L 0.53125 -5.203125 C 0.789062 -5.992188 0.820312 -6.609375 0.625 -7.046875 C 0.4375 -7.492188 0.117188 -7.789062 -0.328125 -7.9375 C -0.660156 -8.050781 -1 -8.066406 -1.34375 -7.984375 C -1.695312 -7.910156 -2.015625 -7.738281 -2.296875 -7.46875 C -2.578125 -7.207031 -2.789062 -6.859375 -2.9375 -6.421875 L -3.75 -3.953125 Z M -4.828125 -4.3125 L -4.078125 -6.5625 C -3.898438 -7.113281 -3.898438 -7.628906 -4.078125 -8.109375 C -4.265625 -8.597656 -4.628906 -8.929688 -5.171875 -9.109375 C -5.597656 -9.253906 -6.019531 -9.222656 -6.4375 -9.015625 C -6.851562 -8.816406 -7.171875 -8.382812 -7.390625 -7.71875 L -8.15625 -5.421875 Z M -4.828125 -4.3125 "/></g></g></g><g fill="#c99a5b" fill-opacity="1"><g transform="translate(93.695158, 141.458239)"><g><path d="M 0.84375 -1.5 L 0.1875 -0.328125 L -7.09375 -8.9375 L -6.453125 -10.078125 L 4.671875 -8.234375 L 4.015625 -7.0625 L 0.875 -7.625 L -1.234375 -3.90625 Z M -2.015625 -4.8125 L -0.3125 -7.828125 L -5.296875 -8.71875 L -5.34375 -8.640625 Z M -2.015625 -4.8125 "/></g></g></g><g fill="#c99a5b" fill-opacity="1"><g transform="translate(100.118087, 130.800086)"><g><path d="M 0.828125 -0.984375 L -7.25 -7.828125 L -6.421875 -8.796875 L 0.78125 -2.6875 L 3.96875 -6.453125 L 4.84375 -5.71875 Z M 0.828125 -0.984375 "/></g></g></g><g fill="#c99a5b" fill-opacity="1"><g transform="translate(107.297518, 122.679695)"><g><path d="M 0.984375 -0.8125 L -5.796875 -8.953125 L -4.8125 -9.78125 L 1.234375 -2.515625 L 5.015625 -5.671875 L 5.75 -4.796875 Z M 0.984375 -0.8125 "/></g></g></g><g fill="#c99a5b" fill-opacity="1"><g transform="translate(115.748829, 115.91282)"><g><path d="M 1.109375 -0.640625 L -4.125 -9.84375 L 1.4375 -13 L 2 -12.015625 L -2.4375 -9.484375 L -0.671875 -6.375 L 3.484375 -8.734375 L 4.046875 -7.734375 L -0.109375 -5.375 L 1.671875 -2.25 L 6.171875 -4.8125 L 6.734375 -3.828125 Z M 1.109375 -0.640625 "/></g></g></g><g fill="#c99a5b" fill-opacity="1"><g transform="translate(125.686562, 110.50555)"><g><path d="M -2.40625 -9.171875 L -2.765625 -10.25 L 4.734375 -12.828125 L 5.09375 -11.75 L 1.953125 -10.65625 L 5.03125 -1.71875 L 3.8125 -1.3125 L 0.734375 -10.25 Z M -2.40625 -9.171875 "/></g></g></g><g fill="#c99a5b" fill-opacity="1"><g transform="translate(137.224484, 106.970453)"><g/></g></g><g fill="#c99a5b" fill-opacity="1"><g transform="translate(143.917518, 105.714951)"><g><path d="M 9.671875 -7.46875 L 8.375 -7.4375 C 8.257812 -7.925781 8.050781 -8.332031 7.75 -8.65625 C 7.457031 -8.988281 7.101562 -9.234375 6.6875 -9.390625 C 6.28125 -9.554688 5.84375 -9.640625 5.375 -9.640625 C 4.726562 -9.617188 4.148438 -9.441406 3.640625 -9.109375 C 3.128906 -8.785156 2.722656 -8.304688 2.421875 -7.671875 C 2.128906 -7.035156 1.992188 -6.257812 2.015625 -5.34375 C 2.023438 -4.425781 2.191406 -3.65625 2.515625 -3.03125 C 2.835938 -2.40625 3.257812 -1.929688 3.78125 -1.609375 C 4.300781 -1.296875 4.882812 -1.148438 5.53125 -1.171875 C 6 -1.171875 6.4375 -1.257812 6.84375 -1.4375 C 7.25 -1.625 7.59375 -1.882812 7.875 -2.21875 C 8.164062 -2.5625 8.359375 -2.976562 8.453125 -3.46875 L 9.75 -3.5 C 9.625 -2.769531 9.363281 -2.140625 8.96875 -1.609375 C 8.570312 -1.085938 8.078125 -0.6875 7.484375 -0.40625 C 6.898438 -0.125 6.253906 0.0195312 5.546875 0.03125 C 4.640625 0.0507812 3.832031 -0.144531 3.125 -0.5625 C 2.414062 -0.988281 1.851562 -1.609375 1.4375 -2.421875 C 1.019531 -3.234375 0.800781 -4.195312 0.78125 -5.3125 C 0.757812 -6.425781 0.941406 -7.390625 1.328125 -8.203125 C 1.710938 -9.023438 2.25 -9.664062 2.9375 -10.125 C 3.632812 -10.582031 4.4375 -10.820312 5.34375 -10.84375 C 6.050781 -10.851562 6.703125 -10.722656 7.296875 -10.453125 C 7.898438 -10.191406 8.410156 -9.804688 8.828125 -9.296875 C 9.242188 -8.796875 9.523438 -8.1875 9.671875 -7.46875 Z M 9.671875 -7.46875 "/></g></g></g><g fill="#c99a5b" fill-opacity="1"><g transform="translate(157.082669, 105.830138)"><g><path d="M 1.265625 0.21875 L 3.09375 -10.21875 L 4.359375 -10 L 2.734375 -0.6875 L 7.578125 0.15625 L 7.375 1.28125 Z M 1.265625 0.21875 "/></g></g></g><g fill="#c99a5b" fill-opacity="1"><g transform="translate(167.69042, 107.845774)"><g><path d="M 1.609375 0.609375 L 0.34375 0.125 L 7.71875 -8.421875 L 8.9375 -7.96875 L 8.859375 3.328125 L 7.609375 2.859375 L 7.65625 -0.328125 L 3.65625 -1.828125 Z M 4.4375 -2.75 L 7.6875 -1.53125 L 7.796875 -6.609375 L 7.703125 -6.640625 Z M 4.4375 -2.75 "/></g></g></g><g fill="#c99a5b" fill-opacity="1"><g transform="translate(179.218358, 112.469608)"><g><path d="M 10.1875 -3.03125 C 10.414062 -3.519531 10.414062 -4 10.1875 -4.46875 C 9.96875 -4.945312 9.585938 -5.351562 9.046875 -5.6875 C 8.441406 -6.0625 7.867188 -6.21875 7.328125 -6.15625 C 6.785156 -6.101562 6.382812 -5.863281 6.125 -5.4375 C 5.914062 -5.113281 5.851562 -4.789062 5.9375 -4.46875 C 6.019531 -4.144531 6.160156 -3.84375 6.359375 -3.5625 C 6.566406 -3.289062 6.757812 -3.054688 6.9375 -2.859375 L 7.71875 -2.0625 C 7.90625 -1.851562 8.109375 -1.601562 8.328125 -1.3125 C 8.546875 -1.019531 8.726562 -0.695312 8.875 -0.34375 C 9.03125 0 9.101562 0.367188 9.09375 0.765625 C 9.09375 1.160156 8.960938 1.566406 8.703125 1.984375 C 8.398438 2.472656 8 2.835938 7.5 3.078125 C 7.007812 3.316406 6.453125 3.398438 5.828125 3.328125 C 5.203125 3.265625 4.546875 3.019531 3.859375 2.59375 C 2.878906 1.988281 2.242188 1.285156 1.953125 0.484375 C 1.671875 -0.316406 1.734375 -1.109375 2.140625 -1.890625 L 3.265625 -1.1875 C 3.078125 -0.832031 3.015625 -0.476562 3.078125 -0.125 C 3.140625 0.21875 3.296875 0.535156 3.546875 0.828125 C 3.796875 1.128906 4.101562 1.390625 4.46875 1.609375 C 4.882812 1.867188 5.296875 2.03125 5.703125 2.09375 C 6.117188 2.164062 6.5 2.140625 6.84375 2.015625 C 7.1875 1.890625 7.457031 1.664062 7.65625 1.34375 C 7.84375 1.039062 7.910156 0.742188 7.859375 0.453125 C 7.804688 0.160156 7.679688 -0.125 7.484375 -0.40625 C 7.285156 -0.695312 7.054688 -0.988281 6.796875 -1.28125 L 5.890625 -2.28125 C 5.304688 -2.925781 4.921875 -3.5625 4.734375 -4.1875 C 4.546875 -4.8125 4.644531 -5.429688 5.03125 -6.046875 C 5.34375 -6.546875 5.75 -6.898438 6.25 -7.109375 C 6.757812 -7.316406 7.3125 -7.378906 7.90625 -7.296875 C 8.5 -7.222656 9.085938 -7.007812 9.671875 -6.65625 C 10.253906 -6.289062 10.707031 -5.863281 11.03125 -5.375 C 11.351562 -4.894531 11.535156 -4.390625 11.578125 -3.859375 C 11.628906 -3.335938 11.519531 -2.84375 11.25 -2.375 Z M 10.1875 -3.03125 "/></g></g></g><g fill="#c99a5b" fill-opacity="1"><g transform="translate(189.191993, 118.918347)"><g><path d="M 10.59375 -1.046875 C 10.894531 -1.484375 10.984375 -1.957031 10.859375 -2.46875 C 10.734375 -2.976562 10.4375 -3.445312 9.96875 -3.875 C 9.445312 -4.351562 8.910156 -4.613281 8.359375 -4.65625 C 7.816406 -4.707031 7.378906 -4.550781 7.046875 -4.1875 C 6.785156 -3.894531 6.660156 -3.582031 6.671875 -3.25 C 6.691406 -2.925781 6.773438 -2.609375 6.921875 -2.296875 C 7.066406 -1.992188 7.210938 -1.722656 7.359375 -1.484375 L 7.953125 -0.546875 C 8.109375 -0.316406 8.265625 -0.0390625 8.421875 0.28125 C 8.578125 0.601562 8.695312 0.953125 8.78125 1.328125 C 8.875 1.703125 8.878906 2.082031 8.796875 2.46875 C 8.710938 2.851562 8.503906 3.234375 8.171875 3.609375 C 7.773438 4.023438 7.3125 4.304688 6.78125 4.453125 C 6.25 4.597656 5.679688 4.578125 5.078125 4.390625 C 4.484375 4.203125 3.890625 3.832031 3.296875 3.28125 C 2.453125 2.507812 1.960938 1.695312 1.828125 0.84375 C 1.703125 0 1.910156 -0.765625 2.453125 -1.453125 L 3.4375 -0.5625 C 3.1875 -0.238281 3.054688 0.0976562 3.046875 0.453125 C 3.046875 0.804688 3.132812 1.148438 3.3125 1.484375 C 3.5 1.816406 3.753906 2.128906 4.078125 2.421875 C 4.429688 2.753906 4.804688 2.992188 5.203125 3.140625 C 5.597656 3.285156 5.972656 3.328125 6.328125 3.265625 C 6.691406 3.210938 7.003906 3.046875 7.265625 2.765625 C 7.503906 2.503906 7.625 2.222656 7.625 1.921875 C 7.632812 1.628906 7.566406 1.320312 7.421875 1 C 7.285156 0.6875 7.117188 0.363281 6.921875 0.03125 L 6.21875 -1.125 C 5.757812 -1.863281 5.5 -2.554688 5.4375 -3.203125 C 5.375 -3.859375 5.585938 -4.453125 6.078125 -4.984375 C 6.484375 -5.421875 6.953125 -5.691406 7.484375 -5.796875 C 8.023438 -5.898438 8.578125 -5.859375 9.140625 -5.671875 C 9.710938 -5.484375 10.25 -5.160156 10.75 -4.703125 C 11.257812 -4.234375 11.625 -3.726562 11.84375 -3.1875 C 12.070312 -2.644531 12.160156 -2.113281 12.109375 -1.59375 C 12.054688 -1.082031 11.851562 -0.625 11.5 -0.21875 Z M 10.59375 -1.046875 "/></g></g></g><g fill="#c99a5b" fill-opacity="1"><g transform="translate(197.76163, 127.158618)"><g><path d="M 0.765625 1.03125 L 9.25 -5.3125 L 13.078125 -0.203125 L 12.171875 0.484375 L 9.109375 -3.609375 L 6.234375 -1.46875 L 9.09375 2.359375 L 8.1875 3.046875 L 5.328125 -0.78125 L 2.4375 1.359375 L 5.546875 5.515625 L 4.640625 6.203125 Z M 0.765625 1.03125 "/></g></g></g><g fill="#c99a5b" fill-opacity="1"><g transform="translate(204.361281, 136.351741)"><g><path d="M 10.234375 2.859375 C 10.691406 2.566406 10.945312 2.160156 11 1.640625 C 11.0625 1.117188 10.957031 0.570312 10.6875 0 C 10.375 -0.632812 9.972656 -1.066406 9.484375 -1.296875 C 8.992188 -1.535156 8.523438 -1.546875 8.078125 -1.328125 C 7.722656 -1.160156 7.492188 -0.921875 7.390625 -0.609375 C 7.296875 -0.296875 7.257812 0.03125 7.28125 0.375 C 7.3125 0.71875 7.347656 1.019531 7.390625 1.28125 L 7.625 2.375 C 7.675781 2.644531 7.71875 2.960938 7.75 3.328125 C 7.78125 3.691406 7.765625 4.0625 7.703125 4.4375 C 7.648438 4.8125 7.515625 5.164062 7.296875 5.5 C 7.078125 5.832031 6.742188 6.109375 6.296875 6.328125 C 5.785156 6.578125 5.253906 6.671875 4.703125 6.609375 C 4.160156 6.546875 3.640625 6.316406 3.140625 5.921875 C 2.648438 5.535156 2.226562 4.976562 1.875 4.25 C 1.363281 3.21875 1.203125 2.285156 1.390625 1.453125 C 1.585938 0.617188 2.0625 -0.015625 2.8125 -0.453125 L 3.40625 0.734375 C 3.050781 0.941406 2.804688 1.207031 2.671875 1.53125 C 2.546875 1.851562 2.507812 2.207031 2.5625 2.59375 C 2.613281 2.976562 2.734375 3.363281 2.921875 3.75 C 3.128906 4.1875 3.390625 4.539062 3.703125 4.8125 C 4.015625 5.082031 4.347656 5.257812 4.703125 5.34375 C 5.066406 5.425781 5.421875 5.382812 5.765625 5.21875 C 6.085938 5.0625 6.300781 4.84375 6.40625 4.5625 C 6.519531 4.289062 6.570312 3.976562 6.5625 3.625 C 6.550781 3.28125 6.507812 2.921875 6.4375 2.546875 L 6.1875 1.203125 C 6.039062 0.347656 6.054688 -0.390625 6.234375 -1.015625 C 6.410156 -1.640625 6.820312 -2.109375 7.46875 -2.421875 C 8 -2.679688 8.535156 -2.765625 9.078125 -2.671875 C 9.628906 -2.585938 10.132812 -2.351562 10.59375 -1.96875 C 11.050781 -1.582031 11.425781 -1.085938 11.71875 -0.484375 C 12.019531 0.128906 12.175781 0.726562 12.1875 1.3125 C 12.207031 1.90625 12.097656 2.429688 11.859375 2.890625 C 11.628906 3.359375 11.269531 3.71875 10.78125 3.96875 Z M 10.234375 2.859375 "/></g></g></g></svg>